<!-- Generated by IcoMoon.io -->
<svg version="1.1" xmlns="http://www.w3.org/2000/svg" width="32" height="32" viewBox="0 0 32 32">
<path d="M30.932 9.083c-0.276-0.25-0.609-0.41-0.963-0.463s-0.715 0.004-1.041 0.163l-6.886 3.36c-0.030 0.018-0.064 0.030-0.098 0.033s-0.069 0-0.102-0.011c-0.033-0.011-0.064-0.030-0.090-0.054s-0.048-0.054-0.064-0.088l-4.023-7.95c-0.163-0.329-0.404-0.603-0.696-0.794s-0.627-0.292-0.967-0.292c-0.34 0-0.674 0.101-0.967 0.292s-0.533 0.465-0.696 0.794l-4.023 7.95c-0.016 0.034-0.038 0.064-0.064 0.088s-0.057 0.043-0.090 0.054c-0.033 0.011-0.068 0.015-0.102 0.011s-0.068-0.015-0.098-0.033l-6.886-3.36c-0.325-0.162-0.686-0.221-1.040-0.169s-0.688 0.212-0.964 0.462c-0.276 0.25-0.482 0.58-0.595 0.953s-0.13 0.773-0.047 1.155l3.477 16.245c0.059 0.275 0.168 0.533 0.32 0.76s0.345 0.417 0.566 0.56c0.291 0.196 0.627 0.3 0.968 0.3 0.175-0.002 0.349-0.027 0.518-0.075 6.357-1.935 13.072-1.94 19.432-0.015 0.248 0.079 0.508 0.101 0.764 0.066s0.503-0.127 0.726-0.27 0.417-0.334 0.571-0.562c0.154-0.228 0.264-0.488 0.324-0.764l3.464-16.245c0.087-0.379 0.074-0.778-0.038-1.15s-0.316-0.701-0.59-0.95zM29.977 10.763l-3.477 16.245c-0.019 0.079-0.062 0.148-0.123 0.195-0.068 0.036-0.144 0.047-0.218 0.030-6.648-2.020-13.67-2.020-20.318 0-0.036 0.011-0.073 0.014-0.11 0.009s-0.072-0.019-0.104-0.040c-0.032-0.021-0.060-0.049-0.081-0.082s-0.037-0.071-0.045-0.111l-3.477-16.245c-0.008-0.045-0.007-0.091 0.003-0.135s0.029-0.086 0.054-0.121c0.026-0.036 0.059-0.065 0.096-0.085s0.078-0.032 0.119-0.033l0.109 0.030 6.9 3.375c0.435 0.216 0.928 0.243 1.381 0.076s0.831-0.515 1.060-0.976l4.023-7.95c0.021-0.047 0.055-0.087 0.095-0.115s0.088-0.043 0.136-0.043c0.048 0 0.095 0.015 0.136 0.043s0.074 0.068 0.096 0.115l4.023 7.95c0.229 0.46 0.608 0.809 1.060 0.976s0.946 0.14 1.381-0.076l6.9-3.375c0.047-0.023 0.098-0.031 0.149-0.023s0.098 0.031 0.137 0.068c0.040 0.035 0.070 0.082 0.087 0.135s0.020 0.11 0.009 0.165zM21.182 22.163c-0.023 0.222-0.119 0.426-0.27 0.575s-0.346 0.233-0.548 0.235h-0.082c-2.847-0.315-5.716-0.315-8.564 0-0.215 0.025-0.43-0.044-0.599-0.193s-0.277-0.365-0.301-0.602c-0.019-0.238 0.047-0.475 0.185-0.66s0.336-0.303 0.552-0.33c2.955-0.345 5.936-0.345 8.891 0 0.213 0.027 0.409 0.143 0.547 0.325s0.205 0.415 0.19 0.65z"></path>
</svg>
