<!-- Generated by IcoMoon.io -->
<svg version="1.1" xmlns="http://www.w3.org/2000/svg" width="32" height="32" viewBox="0 0 32 32">
<path d="M16 8.923c-1.4 0-2.768 0.415-3.932 1.193s-2.071 1.883-2.607 3.176c-0.536 1.293-0.676 2.716-0.403 4.089s0.947 2.634 1.937 3.623c0.99 0.99 2.251 1.664 3.623 1.937s2.796 0.133 4.089-0.403c1.293-0.536 2.398-1.443 3.176-2.607s1.193-2.532 1.193-3.932c0-1.877-0.746-3.677-2.073-5.004s-3.127-2.073-5.004-2.073zM16 21.231c-1.035 0-2.046-0.307-2.906-0.882s-1.531-1.392-1.927-2.347-0.499-2.008-0.298-3.022c0.202-1.015 0.7-1.947 1.432-2.678s1.664-1.23 2.678-1.432c1.015-0.202 2.066-0.098 3.022 0.298s1.773 1.066 2.347 1.927c0.575 0.86 0.882 1.871 0.882 2.906-0.004 1.386-0.556 2.714-1.537 3.694s-2.308 1.532-3.694 1.537zM22.769 0.923h-13.538c-2.203 0-4.316 0.875-5.874 2.433s-2.433 3.671-2.433 5.874v13.538c0 2.203 0.875 4.316 2.433 5.874s3.671 2.433 5.874 2.433h13.538c2.203 0 4.316-0.875 5.874-2.433s2.433-3.671 2.433-5.874v-13.538c0-2.203-0.875-4.316-2.433-5.874s-3.671-2.433-5.874-2.433zM29.231 22.769c0 1.714-0.681 3.357-1.893 4.569s-2.855 1.893-4.569 1.893h-13.538c-1.714 0-3.357-0.681-4.569-1.893s-1.893-2.855-1.893-4.569v-13.538c0-1.714 0.681-3.357 1.893-4.569s2.855-1.893 4.569-1.893h13.538c1.714 0 3.357 0.681 4.569 1.893s1.893 2.855 1.893 4.569v13.538zM25.538 8c0 0.304-0.090 0.602-0.259 0.855s-0.409 0.45-0.69 0.567c-0.281 0.116-0.591 0.147-0.889 0.088s-0.573-0.206-0.788-0.421-0.362-0.489-0.421-0.788c-0.059-0.298-0.029-0.608 0.088-0.889s0.314-0.521 0.567-0.69c0.253-0.169 0.551-0.259 0.855-0.259 0.408 0 0.799 0.162 1.088 0.451s0.451 0.68 0.451 1.088z"></path>
</svg>
